<svg xmlns="http://www.w3.org/2000/svg" xmlns:xlink="http://www.w3.org/1999/xlink" xmlns:sketch="http://www.bohemiancoding.com/sketch/ns" width="1600px" height="1100px" viewBox="0 0 1600 1100" version="1.1">
    <title>Allstate Logo</title>
    <desc fill="#d0d0d0">Allstate Insurance Company Logo</desc>
    <defs fill="#d0d0d0"/>
    <g id="Page-1" stroke="none" stroke-width="1" fill="none" fill-rule="evenodd" sketch:type="MSPage">
        <g id="allstate-logo" sketch:type="MSLayerGroup" transform="translate(0.000000, 372.000000)" fill="#d8dddd">
            <g id="Layer_1" sketch:type="MSShapeGroup">
                <g id="Group">
                    <g transform="translate(485.654886, 79.850467)">
                        <path d="M1097.87942,222.696299 C1087.22495,222.696299 1079.79376,215.27686 1079.79376,204.21757 C1079.79376,193.211514 1087.35468,185.635701 1097.87942,185.635701 C1108.56383,185.635701 1115.96175,193.128336 1115.96175,204.21757 C1115.96175,215.216972 1108.39085,222.696299 1097.87942,222.696299 L1097.87942,222.696299 Z M1097.87942,187.801645 C1089.26736,187.801645 1082.42495,193.693944 1082.42495,204.21757 C1082.42495,214.638056 1089.26736,220.533682 1097.87942,220.533682 C1106.56466,220.533682 1113.41372,214.638056 1113.41372,204.21757 C1113.41372,193.693944 1106.48815,187.801645 1097.87942,187.801645 L1097.87942,187.801645 Z M1103.22827,214.085757 L1097.09771,205.325495 L1095.10852,205.325495 L1095.10852,213.773009 L1091.57588,213.773009 L1091.57588,193.301346 L1097.78295,193.301346 C1102.09397,193.301346 1104.96133,195.437346 1104.96133,199.270168 C1104.96133,202.214654 1103.37464,204.124411 1100.81663,204.926243 L1106.721,213.290579 L1103.22827,214.085757 L1103.22827,214.085757 Z M1097.78628,196.482056 L1095.10852,196.482056 L1095.10852,202.530729 L1097.63659,202.530729 C1099.94511,202.530729 1101.38212,201.585832 1101.38212,199.50972 C1101.38212,197.513458 1100.10811,196.482056 1097.78628,196.482056 L1097.78628,196.482056 Z" id="Shape" fill="#d0d0d0"/>
                        <g>
                            <path d="M140.261123,-1.57039252 L0.795010395,222.689645 L48.206237,222.689645 C48.206237,222.689645 82.597921,166.857533 83.7887734,164.951103 L163.815385,164.951103 L163.848649,222.712935 L208.851559,222.702953 L208.851559,-1.57039252 L140.261123,-1.57039252 L140.261123,-1.57039252 Z M163.74553,125.215514 L108.740125,125.215514 C112.169647,119.759065 163.74553,35.922729 163.74553,35.922729 L163.74553,125.215514 L163.74553,125.215514 Z" id="Shape" fill="#d0d0d0"/>
                            <rect id="Rectangle-path" x="239.50104" y="0" width="43.7355509" height="224.293308" fill="#d0d0d0"/>
                            <rect id="Rectangle-path" x="316.008316" y="0" width="43.6723493" height="224.293308" fill="#d0d0d0"/>
                            <path d="M456.282744,116.784636 C432.49896,110.572935 427.519335,107.086131 428.151351,97.1746916 C428.663617,88.1881869 435.975052,83.0211963 448.192931,83.0211963 C463.308108,83.0211963 481.796258,88.3478879 497.673181,97.2611963 L500.174636,98.6951776 L506.198753,61.2685981 L504.775052,60.5998505 C488.469023,53.1537944 468.946362,49.1878879 448.192931,49.1878879 C428.221206,49.1878879 411.24657,55.3496822 400.282744,66.5220935 C391.604158,75.4287477 387.150104,86.9638131 387.372973,99.7698318 C388.134719,134.351738 404.613721,144.130093 443.639085,154.17129 C469.451975,160.539364 474.694387,164.32228 474.498129,176.629234 C474.355094,187.688523 467.758836,191.864037 450.205405,191.864037 C431.843659,191.864037 411.150104,185.100037 393.190852,173.358692 L390.586279,171.625271 L384.522245,209.188262 L385.822869,209.910243 C399.807069,217.599178 423.700624,225.667402 448.874844,225.667402 C473.287318,225.667402 491.319751,219.884897 502.469854,208.612673 C511.165073,199.772561 515.432848,187.808299 515.233264,172.966093 C514.667775,135.838953 495.933472,127.008822 456.282744,116.784636 L456.282744,116.784636 Z" id="Shape" fill="#d0d0d0"/>
                            <path d="M621.458628,184.910393 L619.193347,185.515925 C616.186279,186.344374 612.387526,186.763589 607.19501,186.763589 C594.235343,186.763589 588.204574,180.914542 588.204574,168.268224 L588.204574,88.8569346 L620.274428,88.8569346 L620.866528,52.3419813 L588.2079,52.3419813 L588.2079,-1.58037383 L545.190852,-1.58037383 L545.190852,52.3419813 L522.717672,52.3419813 L522.717672,88.8569346 L545.190852,88.8569346 L545.190852,174.87585 C545.190852,208.932075 562.970478,225.590879 599.630769,225.590879 C611.459459,225.590879 618.707692,224.243402 625.160915,222.839364 L627.123493,222.463402 L621.458628,184.910393 L621.458628,184.910393 Z" id="Shape" fill="#d0d0d0"/>
                            <path d="M714.538046,48.835215 C687.338046,48.835215 666.810811,55.4594766 650.471518,61.8674766 L648.921414,62.4696822 L654.536383,98.4456449 L656.981289,97.3643364 C676.580457,88.6972336 693.165904,84.6581308 709.322245,84.6581308 C726.553015,84.6581308 734.652807,91.7881121 734.652807,107.139364 L734.652807,111.534467 C670.060707,118.188673 638.616216,140.220748 638.616216,178.938243 C638.616216,207.538019 657.144283,226.000112 685.877755,226.000112 C705.769647,226.000112 722.281913,218.73372 737.500208,203.931439 C738.325156,208.885495 740.547193,222.692972 740.547193,222.692972 L778.328482,222.692972 L778.328482,105.971551 C778.331809,67.0311402 758.077339,48.835215 714.538046,48.835215 L714.538046,48.835215 Z M699.426195,191.864037 C688.665281,191.864037 682.009148,185.266393 682.009148,174.679551 C682.009148,155.811551 700.191268,143.481308 734.656133,138.853308 L734.656133,175.797458 C723.955094,186.247888 711.807069,191.864037 699.426195,191.864037 L699.426195,191.864037 Z" id="Shape" fill="#d0d0d0"/>
                            <path d="M890.511435,184.910393 L888.282744,185.515925 C885.292308,186.344374 881.430353,186.763589 876.327651,186.763589 C863.318087,186.763589 857.22079,180.914542 857.22079,168.268224 L857.22079,88.8569346 L889.353846,88.8569346 L889.949272,52.3419813 L857.22079,52.3419813 L857.22079,-1.58037383 L814.130561,-1.58037383 L814.130561,52.3419813 L791.770478,52.3419813 L791.770478,88.8569346 L814.130561,88.8569346 L814.130561,174.87585 C814.130561,208.932075 832.029938,225.590879 868.710187,225.590879 C880.505613,225.590879 888.089813,224.17686 894.23368,222.839364 L896.146362,222.463402 L890.511435,184.910393 L890.511435,184.910393 Z" id="Shape" fill="#d0d0d0"/>
                            <path d="M1040.47235,171.788299 C1020.90312,185.356224 1004.90644,191.205271 986.817464,191.205271 C963.339709,191.205271 948.760083,175.311701 946.258628,147.66015 L1048.1763,147.66015 L1048.62536,136.005308 C1048.62536,78.2800748 1024.63202,48.9183925 977.25738,48.835215 C956.440748,48.7786542 939.369647,55.309757 926.519751,68.1856449 C910.869023,83.7465047 902.589605,107.97114 902.589605,137.994916 C902.589605,192.336486 933.305613,225.996785 982.523077,225.996785 C1006.56965,225.996785 1028.37755,219.289346 1047.39792,206.20385 L1048.46902,205.488523 L1043.16008,169.871888 L1040.47235,171.788299 L1040.47235,171.788299 Z M946.874012,118.820822 C948.843243,94.3899065 959.464449,80.3561869 976.269439,80.3561869 C998.875676,80.3561869 1004.87318,100.748 1005.76466,118.820822 L946.874012,118.820822 L946.874012,118.820822 Z" id="Shape" fill="#d0d0d0"/>
                        </g>
                    </g>
                    <g>
                        <path d="M230.702703,0.635476636 C103.687318,0.635476636 0.329313929,79.0918879 0.329313929,175.564561 C0.329313929,271.997308 103.687318,356.595551 230.702703,356.595551 C357.738046,356.595551 461.059459,272.000636 461.059459,175.564561 C461.062786,79.0918879 357.741372,0.635476636 230.702703,0.635476636 L230.702703,0.635476636 Z M230.709356,344.644598 C120.751767,344.644598 31.2715177,265.72572 31.2715177,175.774168 C31.2715177,85.7826916 120.751767,12.589757 230.709356,12.589757 C340.71684,12.589757 430.167152,85.7860187 430.167152,175.774168 C430.170478,265.72572 340.720166,344.644598 230.709356,344.644598 L230.709356,344.644598 Z" id="Shape" fill="#d0d0d0"/>
                        <g id="SVGID_1_-link" transform="translate(69.854470, 19.962617)">
                            <path d="M116.909771,230.900935 L120.864865,234.920075 C120.864865,234.950019 128.848233,239.385047 128.848233,239.385047 L136.405821,243.497346 L137.363825,244.036336 L142.905613,247.140523 L152.272765,252.264262 C152.834927,252.440598 153.972557,252.440598 153.972557,252.440598 L166.024116,251.678692 C172.946362,251.538953 181.002911,251.678692 186.414969,254.134093 C192.359252,257.195028 190.340125,262.728 190.340125,262.728 C190.340125,262.728 196.500624,258.336224 195.336383,253.102692 C194.724324,248.684299 189.42869,242.851888 171.865281,241.823813 C166.330146,241.497757 158.040748,242.272972 158.040748,242.272972 L157.288981,242.272972 C157.288981,242.149869 149.408732,237.086019 149.408732,237.086019 L146.102287,235.206206 C145.649896,234.993271 135.20499,229.483589 135.20499,229.483589 C135.20499,229.483589 128.585447,226.89843 128.562162,226.868486 L128.562162,226.868486 C128.562162,226.675514 122.627859,218.394355 122.627859,218.394355 L120.459044,215.323439 C120.442412,215.310131 114.152183,206.220486 114.152183,206.220486 L111.447817,202.254579 C111.281497,202.031664 107.822037,196.671701 107.822037,196.671701 C108.108108,196.751551 111.421206,191.694355 111.041996,186.287813 C110.576299,187.013121 110.227027,187.202766 107.782121,189.302168 C105.287318,191.331701 97.8860707,194.642168 92.9430353,195.943065 L90.7309771,196.53529 L108.357588,219.685271 L116.909771,230.900935 L116.909771,230.900935 Z M145.839501,217.785495 L147.043659,219.309308 C147.539293,219.728523 154.980457,222.699626 154.980457,222.699626 C159.956757,224.73914 166.775884,227.846654 169.93264,229.786355 L178.361746,234.743738 C179.023701,235.019888 187.705613,234.384411 193.407069,234.830243 C200.542204,235.39585 206.097297,238.087477 208.994595,242.272972 C212.896466,247.802617 208.146362,253.708224 208.146362,253.708224 L208.146362,253.708224 C209.177547,253.189196 217.254054,248.062131 216.691892,239.867477 C216.149688,232.002206 209.367152,224.655963 184.179626,224.958729 C184.179626,224.895514 177.250728,220.873047 177.250728,220.873047 L175.228274,219.688598 L164.051559,213.956 C164.051559,213.956 154.980457,210.85514 154.933888,210.85514 L154.933888,210.838505 C154.933888,210.515776 152.788358,206.839327 152.788358,206.839327 C149.844491,201.505981 145.749688,196.255813 142.220374,191.611178 L141.125988,190.293645 C141.125988,190.293645 134.938877,181.746318 134.210395,180.668336 C136.16632,176.439589 134.523077,170.370953 134.523077,170.370953 C134.523077,170.370953 133.478586,172.393832 131.758836,174.56643 C130.042412,176.745682 125.478586,180.378879 122.278586,182.112299 L120.578794,183.206916 L143.434511,214.401832 L145.839501,217.785495 L145.839501,217.785495 Z M156.134719,161.943402 C157.52183,156.919477 154.86736,151.985383 154.86736,151.985383 L153.520166,155.189383 C152.392516,157.96086 149.358836,161.128262 144.665281,164.149271 L143.274844,164.917832 L161.749688,191.328374 C161.749688,191.348336 162.850728,193.061794 162.850728,193.061794 L166.373389,197.829533 C166.852391,198.282019 174.097297,202.387664 174.097297,202.387664 L176.838254,203.924785 L185.167568,208.898804 L192.791684,213.985944 L193.360499,214.138991 L204.740125,214.87428 C211.582536,215.449869 215.5842,217.99843 217.663202,219.455701 C224.844906,224.632673 221.002911,232.401458 221.002911,232.401458 C221.002911,232.401458 230.609563,223.335103 224.302703,213.49686 C221.927651,210.113196 218.674428,206.829346 209.097713,205.731402 C209.097713,205.731402 197.365489,204.11443 197.338877,204.11443 L197.338877,204.11443 C197.338877,204.027925 191.02869,199.755925 191.02869,199.755925 L182.765904,194.635514 L180.623701,193.374542 L173.841164,190.423402 L156.134719,161.943402 L156.134719,161.943402 Z M79.3779626,5.19360748 C79.9900208,5.78250467 81.8960499,7.72553271 81.8960499,7.74216822 L91.2,16.2528972 C91.2,16.3061308 96.5155925,21.2834766 96.5155925,21.2834766 C100.447401,25.0564112 101.372141,26.9894579 101.249064,27.7247477 C101.086071,28.4500561 100.357588,28.802729 99.6523909,29.192 C98.960499,29.6012336 97.8561331,29.8574206 97.8561331,29.8574206 L97.4203742,33.3908037 L99.6058212,33.2909907 C111.873597,32.9982056 123.429522,41.3059813 130.917256,48.3660935 C143.896881,60.7429159 153.689813,80.7986916 155.878586,99.5336075 L166.024116,152.311439 L169.839501,160.436224 L170.567983,162.089794 L172.237838,165.546654 C173.67817,168.980224 175.893555,172.02785 176.103119,172.234131 C176.339293,172.460374 181.352183,176.442916 181.352183,176.442916 L188.680249,183.935551 L190.845738,186.271178 L194.348441,189.77129 C194.631185,189.967589 204.949688,191.29843 204.949688,191.29843 C222.932225,194.29615 222.163825,204.290766 222.163825,204.290766 C222.163825,204.290766 232.858212,187.868187 207.328067,182.092336 C207.328067,182.092336 199.281497,180.568523 199.11185,180.568523 C199.11185,180.568523 199.11185,180.568523 199.11185,180.541907 C199.11185,180.355589 196.234511,176.44957 196.234511,176.44957 C195.888565,176.083589 195.273181,175.38157 195.273181,175.38157 C195.110187,175.181944 187.482744,167.672673 187.482744,167.672673 L183.973389,164.342243 C183.973389,164.262393 180.786694,155.781607 180.786694,155.781607 L176.272765,144.835439 C175.12183,141.465084 174.366736,136.091813 173.34553,128.675701 C173.285655,128.386243 172.557173,123.32572 172.557173,123.32572 L169.207484,101.190505 C169.25738,100.82785 169.962578,96.8486355 169.962578,96.8486355 C171.426195,88.5541682 174.52973,79.3846729 179.193347,69.5231402 C184.801663,57.7252336 196.407484,49.9231776 196.547193,49.873271 C205.185863,44.5033271 217.882744,41.555514 224.685239,40.2579439 C227.269854,39.9984299 228.101455,38.4679626 228.570478,36.927514 L228.866528,36.0425047 L228.00499,35.9094206 C224.236175,35.2007477 219.901871,33.9431028 219.549272,33.2410841 C219.482744,33.1046729 219.409563,32.8118879 219.409563,32.5623551 C219.409563,31.8836262 219.901871,30.8488972 220.816632,29.4648224 C220.866528,29.4648224 226.35842,24.1381308 226.35842,24.1381308 L229.581705,20.9441121 C229.581705,20.9441121 243.096881,7.87857944 244.869854,6.15514019 L232.335967,1.92639252 C230.686071,3.63652336 218.461538,16.2994766 218.461538,16.2994766 C209.283992,26.1576822 198.922245,37.2901682 194.165489,39.2697944 C182.509771,44.0242243 170.574636,55.4095701 165.861123,66.3357757 C165.861123,66.3757009 163.788773,71.7356636 162.684407,74.6668411 C159.15842,64.499215 154.747609,56.0650093 148.703534,48.7254206 C142.110603,40.8268785 134.05738,34.921271 124.04158,30.8488972 C118.602911,25.6852336 100.760083,9.33917757 91.0769231,1.39738318 L79.3779626,5.19360748 L79.3779626,5.19360748 Z M127.051975,271.531514 C110.646154,279.882542 101.578378,272.642766 105.55343,263.849234 C110.905613,267.445832 119.19501,270.070916 127.051975,271.531514 L127.051975,271.531514 Z M98.8939709,259.061533 C87.7139293,262.129121 83.5858628,254.260523 86.2203742,247.865832 C88.3459459,250.331215 96.2528067,257.421271 98.8939709,259.061533 L98.8939709,259.061533 Z M-1.57671518,59.0527477 C-0.721829522,59.6616075 1.48357588,61.232 1.48357588,61.232 C1.78960499,61.4482617 15.6640333,72.9434019 17.7031185,74.663514 C17.3704782,75.5451963 11.6623701,91.3755514 11.6623701,91.3755514 C6.42661123,104.554206 1.17422037,117.836 0.871517672,128.293084 L0.967983368,129.979925 C1.01122661,130.219477 5.50519751,153.708822 5.50519751,153.708822 L5.87442827,155.455551 C8.40914761,167.789121 11.2532225,181.829495 12.4607069,191.923925 C12.7401247,194.768598 13.4220374,196.498692 14.5330561,197.177421 C21.3821206,204.307402 32.568815,218.780299 46.0806653,246.395252 C46.4831601,247.113907 46.6727651,247.559738 46.8856549,247.872486 C48.172973,251.672037 49.8029106,254.220598 51.7588358,255.461607 C54.2336798,256.985421 58.9172557,257.078579 61.970894,255.461607 C68.8997921,250.940075 73.7929314,244.578654 76.7900208,236.899701 C77.8411642,238.180636 80.7151767,241.923626 81.170894,242.452636 C69.5384615,262.60157 90.1122661,270.080897 97.4170478,267.202953 C93.1925156,279.413421 108.783368,289.245009 123.452807,282.700598 C125.358836,290.62243 131.642412,292.934766 137.626611,294.092598 C143.577547,295.280374 151.680665,295.919178 164.893139,294.734729 C184.771726,293.104449 202.850728,287.029159 210.105613,283.266206 C225.43368,275.454168 233.806237,265.486168 238.729314,258.522542 C238.805821,258.35286 239.700624,257.278206 240.282744,256.476374 C241.906029,259.357645 243.609148,262.059252 245.538462,264.115402 C250.438254,268.899776 255.035343,271.04243 258.770894,270.35372 C261.438669,269.867963 263.527651,268.207738 264.938046,265.153458 C271.743867,248.74086 286.629522,228.522056 298.281913,214.974093 L298.281913,214.974093 C298.281913,214.930841 299.389605,212.80815 299.389605,212.80815 C301.934304,203.186168 310.998753,179.357458 315.825364,166.491551 L319.264865,157.228897 C319.264865,157.178991 319.936798,154.999738 319.936798,154.999738 C320.179626,151.309981 320.29605,147.61357 320.29605,143.97372 C320.29605,127.411402 317.894387,111.584374 313.347193,98.1828037 C311.131809,91.3988411 308.869854,87.2965234 306.734304,83.2973458 L304.282744,78.805757 C307.599168,73.8650093 317.259044,67.3638505 325.006237,62.1303178 C325.006237,62.1303178 325.448649,61.8641495 325.618295,61.7842991 L316.108108,51.3771215 C315.522661,51.7730467 309.465281,55.9685234 309.465281,55.9685234 C302.546362,60.683028 295.550936,62.5961121 291.216632,60.8527103 C290.584615,60.6131589 284.839917,57.3692336 284.839917,57.3692336 C284.50395,57.1330093 283.492723,56.6539065 283.492723,56.6539065 C283.293139,56.6173084 281.543451,56.3810841 281.543451,56.3810841 C281.310603,56.3977196 279.397921,56.8069533 279.397921,56.8069533 L278.15052,57.1063925 L280.103119,59.3688224 C284.151351,64.1798131 286.253638,68.3253832 289.187526,73.9282243 C289.26736,74.0646355 290.937214,77.218729 290.937214,77.218729 C290.937214,77.2320374 292.607069,81.1214206 292.607069,81.1214206 L292.949688,81.9299065 L295.131809,87.576 L295.534304,88.7637757 L296.715177,92.0276636 L301.292308,108.134168 C305.187526,124.523477 307.16341,138.041495 307.259875,149.576561 L307.259875,149.576561 C307.259875,149.746243 307.083576,150.904075 307.083576,150.904075 C307.063617,150.970617 301.694802,166.082318 301.694802,166.082318 C296.149688,181.779589 289.180873,201.319664 287.62079,209.361271 L287.284823,210.312822 C272.409148,225.820449 261.857796,244.11286 257.380457,255.042393 C256.67526,256.479701 256.186279,256.679327 255.993347,256.712598 C255.311435,256.835701 253.568399,255.235364 252.63368,254.39028 C248.901455,251.023252 246.666112,244.039664 246.94553,236.626879 C247.308108,227.560523 251.209979,219.488972 257.716424,214.398505 C258.770894,213.603327 258.371726,212.106131 258.135551,211.241084 C256.325988,200.917084 259.239917,185.116673 265.603326,180.645047 L267.249896,179.443963 L265.643243,178.22957 C247.417879,164.102692 238.506445,137.971626 237.748025,118.474804 L237.651559,115.919589 L234.827443,117.117346 C234.498129,117.386841 233.423701,119.040411 233.423701,119.040411 C232.708524,122.836636 232.402495,126.702729 232.402495,130.425757 C232.402495,140.440336 234.338462,149.18729 235.113514,152.308112 C237.651559,163.07129 242.977131,173.03929 250.767568,182.002505 C250.767568,182.002505 250.937214,182.198804 251.096881,182.408411 C247.70395,186.67043 246.200416,197.034355 246.200416,205.039364 C246.200416,207.491439 246.31684,209.600822 246.622869,211.330916 C238.10395,218.670505 235.742204,228.019664 235.273181,234.660561 C235.273181,234.660561 235.555925,241.70071 235.555925,241.793869 C235.462786,241.624187 231.411227,247.054019 231.411227,247.054019 L230.609563,248.205196 C222.509771,259.364299 216.84158,267.139738 203.296466,274.093383 C188.540541,281.755701 159.973389,287.032486 141.418711,285.212561 C134.589605,284.450654 135.341372,278.332112 135.341372,278.026019 C135.341372,277.187589 135.650728,276.309234 136.259459,275.497421 C136.259459,275.497421 137.626611,274.030168 138.02578,273.587664 C155.572557,275.577271 172.307692,273.437944 179.269854,269.761495 C179.559252,269.482019 181.711435,266.304636 181.711435,266.304636 L182.553015,264.810766 L180.856549,265.193383 C165.930977,268.943028 136.279418,264.015589 120.595426,257.358056 C103.151767,249.895364 97.8328482,242.851888 83.5858628,224.037121 L79.6108108,218.806916 C79.4910603,213.566729 78.0573805,208.203439 75.5160083,203.668598 C73.1309771,199.429869 69.9742204,196.751551 69.039501,196.016262 C70.1106029,192.852187 70.7359667,188.45043 70.7359667,183.805794 C70.7359667,177.484299 69.5817048,171.08628 67.372973,167.54957 C77.970894,159.25843 83.356341,150.744374 83.1966736,140.966019 C83.1068607,136.331364 80.5588358,129.274579 80.5588358,129.274579 L76.4839917,127.388112 L76.766736,130.069757 C78.3866944,146.602131 62.9887734,157.325383 52.7866944,164.475327 C52.7866944,164.498617 49.806237,166.52815 49.806237,166.52815 L51.7621622,167.745869 C59.7621622,172.73985 59.8652807,189.538393 58.0490644,198.977383 L57.9559252,199.523028 L58.3783784,200.30157 L58.8440748,200.534467 C58.7775468,200.514505 62.6827443,203.638654 62.6827443,203.638654 C70.7326403,214.455065 70.0806653,231.19372 61.2257796,241.061907 C59.4295218,242.935065 58.4681913,243.167963 57.9692308,243.108075 C56.6519751,242.828598 55.5975052,239.747701 55.3114345,238.722953 C55.2382536,238.59985 52.8133056,233.549308 52.8133056,233.549308 C45.8444906,219.053121 40.0099792,206.869271 26.4615385,190.68957 C26.4615385,190.659626 26.1122661,189.385346 26.1122661,189.385346 C23.4744283,168.191701 20.1846154,152.491103 16.9779626,137.359439 L15.2116424,129.138168 C15.2116424,129.094916 15.002079,126.998841 15.002079,126.998841 C15.9700624,110.902318 20.9530146,98.256 26.7941788,83.6134206 L30.3301455,74.4638879 L33.2507277,67.4636636 C33.2972973,67.4636636 33.7696466,66.4322617 33.7696466,66.4322617 C37.1991684,61.5347664 41.8029106,56.8868037 47.397921,52.6048224 L49.8993763,50.7316636 L46.6461538,49.3775327 C46.6461538,49.3775327 40.3126819,50.0695701 33.9825364,53.1970467 L32.8482328,53.7393645 C28.2079002,55.9152897 22.8623701,57.6054579 18.8407484,56.021757 C18.8407484,56.021757 8.17297297,49.6536822 7.62744283,49.3575701 L-1.57671518,59.0527477 L-1.57671518,59.0527477 Z" id="SVGID_1_" fill="#d0d0d0"/>
                        </g>
                    </g>
                </g>
            </g>
        </g>
    </g>
</svg>