<svg xmlns:cc="http://creativecommons.org/ns#" xmlns:dc="http://purl.org/dc/elements/1.1/" xmlns:inkscape="http://www.inkscape.org/namespaces/inkscape" xmlns:rdf="http://www.w3.org/1999/02/22-rdf-syntax-ns#" xmlns:sodipodi="http://sodipodi.sourceforge.net/DTD/sodipodi-0.dtd" xmlns:svg="http://www.w3.org/2000/svg" xmlns="http://www.w3.org/2000/svg" xmlns:xlink="http://www.w3.org/1999/xlink" version="1.1" id="svg3875" inkscape:version="0.48.5 r10040" sodipodi:docname="A.svg" x="0px" y="0px" viewBox="0 0 537 166.7" style="enable-background:new 0 0 537 166.7;" xml:space="preserve">
<style type="text/css">
	.st0{fill:#d4d4d4;}
</style>
<path class="st0" d="M514.3,13.5c0-6.1,4.9-11.1,10.9-11.1c2.9,0,5.6,1.2,7.7,3.2c2.1,2.1,3.2,4.9,3.2,7.8c0,2.9-1.1,5.7-3.2,7.8  c-2.1,2.1-4.8,3.3-7.7,3.3C519.2,24.5,514.3,19.6,514.3,13.5 M513.4,13.5c0,6.6,5.3,12,11.9,12c3.2,0,6.1-1.2,8.3-3.5  c2.2-2.3,3.5-5.3,3.5-8.5c0-3.2-1.2-6.2-3.5-8.5c-2.3-2.3-5.2-3.5-8.3-3.5C518.7,1.5,513.4,6.9,513.4,13.5 M520.8,20.6h1.7V15h3.8  c0.6,0,1.1,0,1.5,0.2c0.5,0.3,0.8,0.9,0.9,1.7l0.2,2.2c0,0.5,0,0.8,0,1c0.1,0.2,0.1,0.3,0.2,0.4h2.1v-0.3c-0.3-0.1-0.4-0.4-0.5-0.8  c-0.1-0.2-0.1-0.6-0.1-1.1l-0.1-1.7c0-0.8-0.2-1.3-0.4-1.6c-0.3-0.3-0.7-0.6-1.2-0.8c0.6-0.3,1-0.7,1.3-1.2c0.3-0.5,0.4-1.1,0.4-1.9  c0-1.5-0.6-2.5-1.7-3.1c-0.6-0.3-1.4-0.4-2.3-0.4h-5.7L520.8,20.6L520.8,20.6z M522.4,13.5V9h4c0.6,0,1.1,0.1,1.4,0.3  c0.6,0.3,0.9,1,0.9,1.9c0,0.9-0.2,1.5-0.7,1.8c-0.4,0.3-1,0.5-1.8,0.5H522.4z M48.6,30L0,106.4h33.2l46.8-73L48.6,30z M248.7,28.3V0  h-94.5c-12.9,0.8-18.5,7-22.7,11.4c-4.5,4.7-7,14.6-7,14.6V0.2H74.2c-3.8,0-7.4,1.6-10.1,5.4c-2.8,3.7-14.3,22.7-14.3,22.7  S248.7,28.3,248.7,28.3z M505.7,28.3V0H404.6c-12.8,0.8-18.5,7-22.7,11.4c-4.5,4.7-7,14.6-7,14.6v2.3L505.7,28.3z M281.9,0.1h-28.3  v28.2h28.3V0.1z M374.6,0.1h-28.2v28.2h28.2V0.1z M374.6,38.5l-27.8-1.7v32.7c0,0-0.1,9.4-9.2,9.4H290c0,0-8.1-0.7-8.1-9.3V32.4  l-28-2v50.1c4.5,24,26.2,25.9,26.2,25.9s2.2,0.1,2.6,0.2h64.5c0,0,27.6-2.2,27.6-28.8L374.6,38.5L374.6,38.5z M95.7,106.4h132.2  c23-4.6,25.4-25.6,25.4-25.6c1.1-6.2,0.5-11.3,0.5-11.3c-0.7-4.2-8.7-22.8-25.9-24.4c-10.3-1-102-8.3-102-8.3  c1.8,9.2,5.9,13.9,8.7,16.5c6.4,6.1,16.5,7.9,16.5,7.9c2.4,0.2,70.7,5.9,70.7,5.9c2.2,0.1,6.3,0.7,6.2,6.1c0,0.7-0.6,5.4-5.8,5.4  h-98.9v-42l-27.5-2C95.7,34.6,95.7,106.4,95.7,106.4z M374.8,106.6H476c25.4-1.5,29-25.6,29-25.6c0.9-6.3,0.2-11.5,0.2-11.5  c-0.7-5.7-8.8-22.9-26.1-24.6c-10.2-1-102.5-6.4-102.5-6.4c2.7,9.5,6.4,12.4,9.2,15c6.4,6.2,15.9,7.6,15.9,7.6  c2.4,0.2,71.4,6,71.4,6c2.2,0.1,6.7,0.3,6.7,5.7c0,1.6-0.8,3.3-1.8,4.2c0,0-2.4,1.3-4.7,1.3h-98.2L374.8,106.6z" fill="#000000"/>
<rect x="1.3" y="124.9" class="st0" width="7.1" height="41.6" fill="#000000"/>
<polygon class="st0" points="14.7,166.6 14.7,124.9 21.3,124.9 29.9,148.8 30,148.8 30,124.9 36.3,124.9 36.3,166.6 30.2,166.6   21.2,140.6 21.1,140.6 21.1,166.6 " fill="#000000"/>
<path class="st0" d="M65.9,135.2c-0.1-0.9-0.2-1.6-0.5-2.2c-0.2-0.6-0.6-1.1-0.9-1.4c-0.4-0.3-0.7-0.6-1.2-0.8  c-0.4-0.1-0.8-0.2-1.2-0.2c-1.1,0-2,0.4-2.6,1.1c-0.6,0.7-0.9,1.7-0.9,3c0,1.2,0.4,2.3,1.1,3.3c0.7,1,1.6,2,2.6,3c1.1,1,2.2,2,3.5,3  c1.3,1,2.4,2.1,3.5,3.4c1.1,1.2,1.9,2.6,2.6,4.1c0.7,1.5,1.1,3.2,1.1,5c0,1.7-0.3,3.3-0.8,4.6c-0.6,1.3-1.3,2.4-2.3,3.3  c-1,0.9-2.1,1.6-3.5,2c-1.4,0.5-2.9,0.7-4.5,0.7c-1.6,0-3.1-0.3-4.4-0.9c-1.3-0.6-2.4-1.5-3.3-2.5c-0.9-1.1-1.6-2.3-2.1-3.7  c-0.5-1.4-0.8-2.9-0.9-4.4l6.7-1c0.2,2.1,0.6,3.7,1.4,4.7c0.8,1,1.7,1.6,2.8,1.6c1.2,0,2.2-0.3,3-1c0.8-0.7,1.1-1.6,1.1-2.8  c0-1.4-0.4-2.6-1.1-3.7c-0.7-1.1-1.6-2.1-2.6-3.1c-1.1-1-2.2-2-3.5-3c-1.3-1-2.4-2.1-3.5-3.3c-1.1-1.2-1.9-2.5-2.6-4  c-0.7-1.5-1.1-3.2-1.1-5.2c0-3.3,0.9-5.9,2.8-7.7c1.9-1.8,4.6-2.7,8.1-2.7c1.4,0,2.7,0.2,3.9,0.7c1.1,0.5,2.1,1.2,2.9,2.1  c0.8,0.9,1.5,2,2,3.2c0.5,1.2,0.8,2.6,1,4L65.9,135.2z" fill="#000000"/>
<polygon class="st0" points="76.9,166.6 76.9,124.9 95.8,124.9 95.8,131.2 83.9,131.2 83.9,141.9 93,141.9 93,148.1 83.9,148.1   83.9,160.3 96.6,160.3 96.6,166.6 " fill="#000000"/>
<path class="st0" d="M104.9,166.6H98l7.6-41.6h8.8l7.6,41.6h-6.8l-1.3-9.2h-7.7L104.9,166.6z M107.1,151.1h5.7l-2.8-17.9h-0.1  L107.1,151.1z" fill="#000000"/>
<path class="st0" d="M131.7,166.6h-7.1v-41.6h9.9c3.9,0,6.9,0.9,8.9,2.8c2,1.9,3,5,3,9.5c0,1.7-0.1,3.1-0.4,4.3  c-0.3,1.2-0.7,2.2-1.1,3c-0.5,0.8-1,1.5-1.6,2c-0.6,0.5-1.2,0.9-1.8,1.2l6,18.9h-7.2l-5-17.2c-0.5,0.1-1,0.1-1.7,0.1  c-0.7,0-1.3,0-2,0L131.7,166.6L131.7,166.6z M131.7,143.6h2.5c0.9,0,1.8-0.1,2.4-0.3c0.7-0.2,1.2-0.5,1.6-1c0.4-0.5,0.7-1.2,0.9-2  c0.2-0.8,0.3-1.9,0.3-3.1c0-2.5-0.4-4.1-1.2-5c-0.8-0.9-2.1-1.4-4-1.4h-2.5L131.7,143.6L131.7,143.6z" fill="#000000"/>
<path class="st0" d="M165.9,138.8v-3.2c0-1.8-0.3-3-1-3.8c-0.7-0.8-1.5-1.2-2.4-1.2c-1.4,0-2.4,0.4-3,1.1c-0.5,0.7-0.8,1.9-0.8,3.5  v21.1c0,1.6,0.3,2.7,0.8,3.5c0.5,0.8,1.5,1.1,3,1.1c1.3,0,2.2-0.4,2.7-1.1c0.5-0.7,0.7-1.8,0.7-3.1v-5h7v4.8c0,1.5-0.2,2.8-0.7,4.1  c-0.4,1.3-1.1,2.4-1.9,3.4c-0.9,1-1.9,1.7-3.3,2.3c-1.3,0.6-2.9,0.8-4.6,0.8c-1.9,0-3.5-0.3-4.8-0.8c-1.3-0.6-2.5-1.3-3.4-2.3  c-0.9-1-1.6-2.1-2-3.4c-0.4-1.3-0.7-2.7-0.7-4.1V135c0-1.5,0.2-2.8,0.7-4.2c0.4-1.3,1.1-2.4,2-3.4c0.9-1,2-1.7,3.4-2.3  c1.3-0.6,2.9-0.8,4.8-0.8c1.7,0,3.3,0.3,4.6,0.9c1.3,0.6,2.4,1.4,3.3,2.5c0.8,1,1.5,2.2,1.9,3.6c0.4,1.4,0.7,2.8,0.7,4.4v3.1  L165.9,138.8L165.9,138.8z" fill="#000000"/>
<polygon class="st0" points="178.7,166.6 178.7,124.9 185.7,124.9 185.7,141.9 193.2,141.9 193.2,124.9 200.3,124.9 200.3,166.6   193.2,166.6 193.2,148.1 185.7,148.1 185.7,166.6 " fill="#000000"/>
<path class="st0" d="M216.9,135c0-1.5,0.2-2.8,0.7-4.2c0.4-1.3,1.1-2.4,2-3.4c0.9-1,2-1.7,3.4-2.3c1.3-0.6,2.9-0.8,4.8-0.8  c1.9,0,3.5,0.3,4.8,0.8c1.3,0.6,2.5,1.3,3.4,2.3c0.9,1,1.6,2.1,2,3.4c0.4,1.3,0.7,2.7,0.7,4.2v21.4c0,1.5-0.2,2.8-0.7,4.2  c-0.4,1.3-1.1,2.4-2,3.4c-0.9,1-2,1.7-3.4,2.3c-1.3,0.6-2.9,0.8-4.8,0.8c-1.9,0-3.5-0.3-4.8-0.8c-1.3-0.6-2.5-1.3-3.4-2.3  c-0.9-1-1.6-2.1-2-3.4c-0.4-1.3-0.7-2.7-0.7-4.2V135z M224,156.3c0,1.6,0.3,2.7,0.8,3.5c0.5,0.8,1.5,1.1,3,1.1c1.4,0,2.4-0.4,3-1.1  c0.5-0.7,0.8-1.9,0.8-3.5v-21.1c0-1.6-0.3-2.7-0.8-3.5c-0.5-0.8-1.5-1.1-3-1.1c-1.4,0-2.4,0.4-3,1.1s-0.8,1.9-0.8,3.5V156.3z" fill="#000000"/>
<polygon class="st0" points="244,166.6 244,124.9 263.7,124.9 263.7,131.2 251,131.2 251,141.9 260.5,141.9 260.5,148.1 251,148.1   251,166.6 " fill="#000000"/>
<rect x="277.4" y="124.9" class="st0" width="7.1" height="41.6" fill="#000000"/>
<polygon class="st0" points="290.8,166.6 290.8,124.9 297.4,124.9 305.9,148.8 306.1,148.8 306.1,124.9 312.4,124.9 312.4,166.6   306.3,166.6 297.3,140.6 297.2,140.6 297.2,166.6 " fill="#000000"/>
<path class="st0" d="M332,138.8v-3.2c0-1.8-0.3-3-1-3.8c-0.7-0.8-1.5-1.2-2.4-1.2c-1.4,0-2.4,0.4-3,1.1c-0.5,0.7-0.8,1.9-0.8,3.5  v21.1c0,1.6,0.3,2.7,0.8,3.5c0.5,0.7,1.5,1.1,3,1.1c1.3,0,2.2-0.4,2.7-1.1c0.5-0.7,0.7-1.8,0.7-3.1v-5h7.1v4.8  c0,1.5-0.2,2.8-0.7,4.1c-0.4,1.3-1.1,2.4-1.9,3.4c-0.9,1-1.9,1.7-3.3,2.3c-1.3,0.6-2.9,0.8-4.6,0.8c-1.9,0-3.5-0.3-4.8-0.8  c-1.3-0.6-2.5-1.3-3.4-2.3c-0.9-1-1.6-2.1-2-3.4c-0.4-1.3-0.7-2.7-0.7-4.1V135c0-1.5,0.2-2.8,0.7-4.1c0.4-1.3,1.1-2.4,2-3.4  c0.9-1,2-1.7,3.4-2.3c1.3-0.6,2.9-0.8,4.8-0.8c1.7,0,3.3,0.3,4.6,0.9c1.3,0.6,2.4,1.4,3.3,2.5c0.9,1,1.5,2.2,1.9,3.6  c0.4,1.4,0.7,2.8,0.7,4.4v3.1L332,138.8L332,138.8z" fill="#000000"/>
<path class="st0" d="M351.9,166.6h-7.1v-41.6h9.9c3.9,0,6.9,0.9,8.9,2.8c2,1.9,3,5,3,9.5c0,1.7-0.1,3.1-0.4,4.3  c-0.3,1.2-0.7,2.2-1.1,3c-0.5,0.8-1,1.5-1.6,2c-0.6,0.5-1.2,0.9-1.8,1.2l6,18.9h-7.2l-5-17.2c-0.5,0.1-1,0.1-1.7,0.1  c-0.7,0-1.3,0-2,0V166.6z M351.9,143.6h2.5c0.9,0,1.8-0.1,2.4-0.3c0.7-0.2,1.2-0.5,1.6-1c0.4-0.5,0.7-1.2,0.9-2  c0.2-0.8,0.3-1.9,0.3-3.1c0-2.5-0.4-4.1-1.2-5c-0.8-0.9-2.1-1.4-4-1.4h-2.5V143.6z" fill="#000000"/>
<polygon class="st0" points="372,166.6 372,124.9 390.8,124.9 390.8,131.2 379,131.2 379,141.9 388.1,141.9 388.1,148.1 379,148.1   379,160.3 391.6,160.3 391.6,166.6 " fill="#000000"/>
<path class="st0" d="M395.8,124.9h10.5c3.7,0,6.5,1,8.3,3.1c1.9,2,2.8,5.2,2.8,9.5V154c0,4.3-0.9,7.5-2.8,9.5  c-1.9,2-4.7,3.1-8.3,3.1h-10.5V124.9z M402.9,160.7h2.4c1.9,0,3.2-0.4,4-1.3c0.7-0.8,1.1-2.4,1.1-4.6v-18.2c0-2.2-0.4-3.7-1.1-4.6  c-0.7-0.8-2.1-1.3-4-1.3h-2.4V160.7z" fill="#000000"/>
<rect x="423.8" y="124.9" class="st0" width="7.1" height="41.6" fill="#000000"/>
<path class="st0" d="M437.2,124.9h10.5c3.8,0,6.6,0.9,8.3,2.8c1.7,1.9,2.6,4.6,2.6,8.2c0,0.9-0.1,1.8-0.3,2.7  c-0.2,0.9-0.5,1.7-0.9,2.5c-0.4,0.8-0.9,1.5-1.5,2.1c-0.6,0.6-1.4,1.1-2.2,1.4c1.8,0.8,3.2,2,4.2,3.5c1,1.5,1.5,3.7,1.5,6.3  c0,1.7-0.2,3.3-0.6,4.8c-0.4,1.5-1,2.7-1.9,3.8c-0.9,1.1-2,1.9-3.4,2.5c-1.4,0.6-3.1,0.9-5.1,0.9h-11.1L437.2,124.9L437.2,124.9z   M444.3,142h2.6c1.3,0,2.4-0.5,3.4-1.4c0.9-0.9,1.4-2.2,1.4-3.9c0-3.9-1.5-5.9-4.6-5.9h-2.7V142z M444.3,160.7h3  c1.9,0,3.2-0.5,4-1.6c0.8-1.1,1.1-2.7,1.1-4.8c0-2.2-0.4-3.8-1.3-4.8s-2.4-1.6-4.5-1.6h-2.3V160.7z" fill="#000000"/>
<polygon class="st0" points="463.9,166.6 463.9,124.9 470.9,124.9 470.9,160.3 482,160.3 482,166.6 " fill="#000000"/>
<polygon class="st0" points="485,166.6 485,124.9 503.9,124.9 503.9,131.2 492,131.2 492,141.9 501.1,141.9 501.1,148.1 492,148.1   492,160.3 504.6,160.3 504.6,166.6 " fill="#000000"/>
</svg>